<svg id="svg" version="1.1" xmlns="http://www.w3.org/2000/svg" xmlns:xlink="http://www.w3.org/1999/xlink" width="400" height="400" viewBox="0, 0, 400,400"><g id="svgg"><path id="path0" d="M230.500 116.101 C 170.567 120.291,132.849 122.098,127.232 121.049 C 123.411 120.335,121.133 120.669,113.573 123.049 C 108.583 124.620,101.912 126.409,98.750 127.024 C 91.962 128.344,91.291 129.761,97.250 130.193 C 101.193 130.478,101.507 130.713,101.604 133.451 C 101.661 135.074,102.240 136.580,102.891 136.797 C 103.541 137.014,105.360 138.273,106.931 139.596 C 109.197 141.502,110.937 142.000,115.335 142.000 C 124.003 142.000,122.341 147.312,112.500 151.064 C 110.850 151.693,107.488 153.023,105.028 154.020 C 102.256 155.144,99.965 155.516,98.999 155.000 C 97.572 154.236,84.995 155.109,75.639 156.621 C 71.561 157.280,72.348 158.955,76.750 158.985 C 84.005 159.034,71.967 162.918,51.500 167.131 C 40.794 169.334,38.000 170.441,38.000 172.479 C 38.000 173.315,38.337 174.031,38.750 174.069 C 41.599 174.331,56.325 174.917,60.079 174.918 C 72.338 174.922,71.980 178.151,59.576 179.464 C 49.927 180.485,47.155 181.962,52.000 183.500 C 53.100 183.849,54.000 184.791,54.000 185.592 C 54.000 187.888,58.788 189.171,68.000 189.342 C 79.189 189.550,80.493 192.202,69.798 193.000 C 63.394 193.478,59.761 195.092,61.398 196.733 C 61.819 197.155,68.764 197.725,76.832 198.000 C 84.899 198.275,92.070 198.869,92.766 199.319 C 94.490 200.434,93.347 202.000,90.809 202.000 C 89.669 202.000,87.333 202.845,85.618 203.879 C 83.903 204.912,80.743 206.320,78.595 207.007 L 74.690 208.257 76.989 209.992 C 80.766 212.841,78.833 214.034,67.816 215.655 C 60.609 216.716,58.946 221.987,65.809 222.015 C 71.467 222.039,74.741 225.927,69.191 226.032 C 59.209 226.220,64.174 233.392,75.389 234.984 C 84.104 236.221,90.423 238.902,84.778 238.968 C 83.282 238.986,78.652 238.252,74.491 237.338 C 65.759 235.419,64.400 235.981,66.085 240.814 C 67.042 243.560,67.979 244.218,72.848 245.569 C 75.957 246.431,79.175 247.401,80.000 247.724 C 80.825 248.047,86.900 248.617,93.500 248.992 C 103.131 249.538,106.482 250.142,110.475 252.052 C 113.211 253.361,116.698 254.300,118.225 254.140 C 119.751 253.980,121.000 254.333,121.000 254.925 C 121.000 255.516,122.155 256.000,123.566 256.000 C 126.404 256.000,130.000 257.615,130.000 258.889 C 130.000 259.943,118.911 267.000,117.255 267.000 C 115.754 267.000,115.590 268.629,117.004 269.502 C 117.556 269.843,117.732 271.220,117.395 272.561 C 116.356 276.704,117.720 279.700,121.244 281.015 C 131.638 284.894,170.771 284.861,221.000 280.931 C 248.350 278.791,270.465 278.044,275.688 279.084 C 279.784 279.899,281.467 279.816,283.688 278.692 C 286.140 277.451,297.962 274.219,306.250 272.524 C 309.895 271.779,309.777 270.000,306.082 270.000 C 301.375 270.000,299.942 269.080,300.595 266.478 C 301.034 264.727,300.607 263.868,298.838 262.947 C 297.552 262.277,295.695 260.890,294.711 259.864 C 293.361 258.458,291.473 258.000,287.020 258.000 C 277.304 258.000,278.330 254.798,289.795 249.335 C 293.881 247.388,294.845 246.518,294.017 245.521 C 292.459 243.643,299.617 239.437,301.587 241.072 C 303.835 242.938,327.642 240.848,326.433 238.892 C 326.130 238.401,324.559 238.000,322.941 238.000 C 321.323 238.000,320.000 237.550,320.000 237.000 C 320.000 236.450,320.811 236.000,321.803 236.000 C 322.794 236.000,327.857 234.860,333.053 233.467 C 338.249 232.074,346.100 230.227,350.500 229.362 C 359.490 227.594,362.000 226.548,362.000 224.567 C 362.000 223.220,360.550 223.053,338.333 221.837 C 327.811 221.262,328.576 218.729,339.614 217.599 C 343.138 217.237,347.255 216.451,348.761 215.852 L 351.500 214.762 348.750 213.797 C 347.238 213.267,346.000 212.222,346.000 211.476 C 346.000 209.129,343.789 208.514,333.500 208.000 C 321.029 207.376,318.686 204.712,330.164 204.206 C 336.533 203.926,340.417 202.085,338.560 200.226 C 338.161 199.827,331.009 199.211,322.667 198.859 C 305.166 198.119,307.000 198.395,307.000 196.500 C 307.000 195.675,307.794 195.000,308.765 195.000 C 309.735 195.000,312.098 194.166,314.015 193.147 C 315.932 192.128,319.257 190.720,321.405 190.018 L 325.310 188.743 323.011 187.008 C 319.234 184.159,321.167 182.966,332.184 181.345 C 339.759 180.230,340.828 175.075,333.500 175.000 C 331.850 174.983,329.880 174.577,329.122 174.096 C 327.386 172.997,328.535 171.000,330.904 171.000 C 338.177 171.000,335.822 163.495,328.235 162.492 C 319.161 161.293,313.000 159.852,313.000 158.929 C 313.000 157.550,318.755 157.824,325.000 159.500 C 333.010 161.650,334.000 161.502,334.000 158.155 C 334.000 153.006,322.161 148.007,309.936 147.994 C 294.414 147.977,288.000 146.868,288.000 144.203 L 288.000 141.703 279.500 142.303 C 274.825 142.633,271.000 142.557,271.000 142.135 C 271.000 141.047,283.828 133.000,285.562 133.000 C 287.251 133.000,287.473 131.410,285.919 130.450 C 285.324 130.082,285.100 128.737,285.421 127.460 C 287.174 120.473,282.559 118.029,265.500 116.916 C 258.900 116.485,251.250 115.921,248.500 115.662 C 245.750 115.403,237.650 115.601,230.500 116.101 M102.756 160.750 C 103.033 161.594,102.002 162.000,99.583 162.000 C 96.165 162.000,95.163 161.170,96.713 159.621 C 97.818 158.515,102.297 159.352,102.756 160.750 M299.447 194.915 C 300.124 196.009,298.009 196.892,296.256 196.248 C 295.571 195.996,295.260 195.388,295.565 194.895 C 296.285 193.731,298.723 193.743,299.447 194.915 M104.504 201.007 C 104.847 201.561,104.404 202.292,103.520 202.631 C 101.606 203.365,100.539 202.556,101.459 201.067 C 102.289 199.723,103.694 199.696,104.504 201.007 M303.848 235.515 C 304.841 236.508,302.530 238.000,300.000 238.000 C 296.715 238.000,295.070 236.216,297.122 234.878 C 298.325 234.094,302.857 234.523,303.848 235.515 " stroke="none" fill="#000000" fill-rule="evenodd"></path></g></svg>